<?xml version="1.0" encoding="utf-8"?>
<!-- Generator: Adobe Illustrator 19.1.0, SVG Export Plug-In . SVG Version: 6.00 Build 0)  -->
<svg version="1.1" id="Isolation_Mode" xmlns="http://www.w3.org/2000/svg" xmlns:xlink="http://www.w3.org/1999/xlink" x="0px"
	 y="0px" viewBox="0 0 398.025 398.329" style="enable-background:new 0 0 398.025 398.329;" xml:space="preserve">
<style type="text/css">
	.st0{opacity:0.8;}
	.st1{fill:#172C4A;}
</style>
<g class="st0">
	<g>
		<rect x="189.997" class="st1" width="14.367" height="26.621"/>
	</g>
	<g>
		<polygon class="st1" points="168.374,29.282 154.324,32.267 148.785,6.233 162.841,3.242 		"/>
	</g>
	<g>
		
			<rect x="114.564" y="16.818" transform="matrix(0.9135 -0.4067 0.4067 0.9135 -1.7281 52.1236)" class="st1" width="14.368" height="26.618"/>
	</g>
	<g>
		
			<rect x="81.105" y="36.574" transform="matrix(0.8091 -0.5876 0.5876 0.8091 -12.4614 61.4046)" class="st1" width="14.37" height="26.621"/>
	</g>
	<g>
		
			<rect x="52.489" y="62.858" transform="matrix(0.6691 -0.7432 0.7432 0.6691 -36.8607 69.55)" class="st1" width="14.367" height="26.621"/>
	</g>
	<g>
		<polygon class="st1" points="52.264,108.26 45.081,120.705 22.025,107.388 29.209,94.949 		"/>
	</g>
	<g>
		<polygon class="st1" points="36.57,140.757 32.134,154.424 6.813,146.191 11.25,132.53 		"/>
	</g>
	<g>
		<polygon class="st1" points="27.974,175.809 26.476,190.097 0,187.31 1.498,173.029 		"/>
	</g>
	<g>
		<polygon class="st1" points="26.858,211.878 28.364,226.166 1.882,228.945 0.382,214.665 		"/>
	</g>
	<g>
		<polygon class="st1" points="33.263,247.398 37.706,261.059 12.386,269.279 7.942,255.625 		"/>
	</g>
	<g>
		<polygon class="st1" points="46.916,280.801 54.1,293.246 31.038,306.55 23.861,294.11 		"/>
	</g>
	<g>
		<polygon class="st1" points="67.212,310.644 76.825,321.319 57.038,339.126 47.425,328.457 		"/>
	</g>
	<g>
		<polygon class="st1" points="93.266,335.605 104.892,344.052 89.238,365.588 77.618,357.144 		"/>
	</g>
	<g>
		<polygon class="st1" points="123.947,354.616 137.072,360.452 126.238,384.774 113.119,378.933 		"/>
	</g>
	<g>
		<polygon class="st1" points="157.903,366.824 171.96,369.808 166.421,395.848 152.37,392.863 		"/>
	</g>
	<g>
		<rect x="193.662" y="371.702" class="st1" width="14.367" height="26.627"/>
	</g>
	<g>
		<polygon class="st1" points="229.651,369.047 243.708,366.057 249.234,392.104 235.184,395.088 		"/>
	</g>
	<g>
		
			<rect x="269.093" y="354.894" transform="matrix(-0.9136 0.4067 -0.4067 -0.9136 678.4271 592.2173)" class="st1" width="14.368" height="26.625"/>
	</g>
	<g>
		<polygon class="st1" points="296.098,341.898 307.725,333.455 323.366,354.992 311.752,363.437 		"/>
	</g>
	<g>
		<polygon class="st1" points="323.656,318.592 333.27,307.916 353.05,325.736 343.443,336.413 		"/>
	</g>
	<g>
		<polygon class="st1" points="345.761,290.07 352.944,277.624 376,290.942 368.817,303.381 		"/>
	</g>
	<g>
		<polygon class="st1" points="361.455,257.573 365.892,243.906 391.211,252.141 386.775,265.8 		"/>
	</g>
	<g>
		<polygon class="st1" points="370.051,222.521 371.55,208.233 398.025,211.02 396.527,225.307 		"/>
	</g>
	<g>
		<polygon class="st1" points="371.167,186.452 369.661,172.164 396.145,169.385 397.649,183.673 		"/>
	</g>
	<g>
		<polygon class="st1" points="364.763,150.938 360.319,137.27 385.64,129.051 390.083,142.711 		"/>
	</g>
	<g>
		
			<rect x="351.87" y="91.344" transform="matrix(0.5001 0.866 -0.866 0.5001 270.1094 -258.6085)" class="st1" width="14.364" height="26.622"/>
	</g>
	<g>
		<polygon class="st1" points="330.82,87.687 321.207,77.018 340.988,59.203 350.607,69.88 		"/>
	</g>
	<g>
		<polygon class="st1" points="304.76,62.723 293.14,54.278 308.788,32.748 320.408,41.186 		"/>
	</g>
	<g>
		<polygon class="st1" points="274.079,43.718 260.96,37.878 271.787,13.561 284.914,19.397 		"/>
	</g>
	<g>
		<polygon class="st1" points="240.123,31.507 226.066,28.522 231.605,2.483 245.655,5.467 		"/>
	</g>
</g>
</svg>
