<?xml version="1.0" encoding="utf-8"?>
<!-- Generator: Adobe Illustrator 19.1.0, SVG Export Plug-In . SVG Version: 6.00 Build 0)  -->
<svg version="1.1" id="Isolation_Mode" xmlns="http://www.w3.org/2000/svg" xmlns:xlink="http://www.w3.org/1999/xlink" x="0px"
	 y="0px" viewBox="0 0 129.506 129.181" style="enable-background:new 0 0 129.506 129.181;" xml:space="preserve">
<style type="text/css">
	.st0{opacity:0.8;}
	.st1{opacity:0.2;}
	.st2{fill:#B5CC88;}
	.st3{opacity:0.7;}
	.st4{opacity:0.4;}
	.st5{opacity:0.5;}
	.st6{fill:#B4CB86;}
</style>
<g class="st0">
	<g class="st1">
		<path class="st2" d="M110.543,18.633C99.568,7.656,85.632,1.448,71.307,0l-0.72,7.422c12.664,1.29,24.983,6.778,34.686,16.482
			c14.534,14.536,19.625,34.934,15.277,53.577l7.29,1.571C132.698,58.016,126.934,35.025,110.543,18.633z"/>
	</g>
	<g class="st3">
		<path class="st2" d="M110.543,110.213c2.515-2.514,4.777-5.189,6.793-7.984l-6.166-4.201c-1.755,2.418-3.717,4.734-5.896,6.914
			c-22.379,22.378-58.661,22.378-81.04,0c-2.023-2.023-3.856-4.162-5.515-6.392l-6.074,4.322c1.895,2.562,3.996,5.019,6.318,7.34
			C44.252,135.503,85.254,135.503,110.543,110.213z"/>
	</g>
	<g class="st4">
		<path class="st2" d="M18.718,98.551C8.98,85.446,5.555,69.129,8.45,53.764l-7.18-2.139c-3.518,17.537,0.275,36.245,11.375,51.249
			L18.718,98.551z"/>
	</g>
	<g class="st0">
		<path class="st2" d="M79.577,21.726l3.124-8.289C67.283,8.022,49.9,9.806,35.779,18.791l4.2,7.834
			C51.828,18.843,66.529,17.205,79.577,21.726z"/>
	</g>
	<g class="st5">
		<path class="st2" d="M102.966,102.637c21.106-21.104,21.106-55.322,0-76.427C97.049,20.292,90.1,16.036,82.701,13.437
			l-3.124,8.289c6.257,2.166,12.134,5.746,17.131,10.742c17.648,17.648,17.648,46.262,0,63.91c-17.649,17.648-46.262,17.648-63.91,0
			c-17.649-17.648-17.649-46.262,0-63.91c2.232-2.231,4.643-4.175,7.182-5.843l-4.2-7.834c-3.276,2.085-6.379,4.558-9.24,7.419
			c-21.106,21.105-21.106,55.324,0,76.428C47.644,123.742,81.861,123.742,102.966,102.637z"/>
	</g>
</g>
<g>
	<path class="st6" d="M51.028,73.485c-0.476-1.122-0.962-2.399-1.374-3.534c-0.406-1.117,0.54-2.212,1.717-2.048
		c0.454,0.064,0.874,0.052,1.19-0.083c-1.209-0.648-5.191-9.199-5.565-10.41c0.744,0.741,2.463,0.187,2.463,0.187
		s-2.213-2.439-4.085-7.416c-0.512-1.36-2.415-1.339-2.905,0.029c-1.668,4.662-3.843,7.797-3.843,7.797s2.024,0.413,2.635-0.658
		c-0.129,1.182-4.487,10.067-5.54,10.748c0.237,0.092,0.576,0.086,0.959,0.023c1.242-0.205,2.162,1.162,1.582,2.28
		c-0.499,0.963-1.056,2.008-1.566,2.954c-0.639,1.185,0.444,2.558,1.747,2.221l2.414-0.624c1.006-0.26,1.976,0.528,1.928,1.565
		l-0.815,17.607c-0.041,0.879,0.661,1.615,1.542,1.615h0.711c0.88,0,1.582-0.735,1.542-1.615L44.946,76.55
		c-0.048-1.034,0.916-1.822,1.92-1.568l2.362,0.598C50.465,75.893,51.526,74.659,51.028,73.485z"/>
	<path class="st6" d="M93.552,68.088c-1.719-2.81-3.651-6.747-4.971-9.661c-0.565-1.248,0.645-2.527,1.94-2.08
		c0.1,0.035,0.201,0.069,0.302,0.102c1.554,0.509,2.719-1.445,1.541-2.58c-2.283-2.2-4.97-5.148-6.805-7.517
		c-0.762-0.984-0.107-2.397,1.135-2.484c1.247-0.087,2.302-0.428,2.302-0.428s-6.618,0.291-11.053-12.982
		c-0.473-1.415-2.47-1.405-2.927,0.015c-3.742,11.62-10.397,13.891-10.397,13.891s1.004,0.205,2.211,0.172
		c1.308-0.035,2.061,1.459,1.259,2.493c-1.782,2.3-4.232,5.011-6.32,7.121c-1.142,1.154,0.068,3.065,1.605,2.539
		c0.037-0.013,0.074-0.025,0.111-0.038c1.382-0.477,2.586,1.055,1.8,2.288c-1.771,2.779-4.378,6.459-6.302,9.124
		c-0.846,1.172,0.242,2.753,1.642,2.391l11.478-2.968c1.025-0.265,2.006,0.557,1.925,1.612l-1.921,24.984
		c-0.069,0.896,0.64,1.662,1.539,1.662h5.542c0.899,0,1.608-0.766,1.539-1.662l-1.925-24.899c-0.081-1.052,0.894-1.874,1.918-1.615
		l11.139,2.823C93.207,70.732,94.277,69.273,93.552,68.088z"/>
	<path class="st6" d="M67.017,79.064c-0.157-0.445,0.155-0.868-0.051-1.259c-0.211-0.398-0.89-1.601-1.825-1.601
		c-0.162-0.788-0.947-1.602-1.496-2.443c-0.287,0.369-0.443,1.314-0.443,1.314s-1.465-1.494-2.041-1.655
		c-0.653,2.676,1.96,3.724,1.96,3.724s-0.142,1.745-1.045,2.468c-0.901,0.721-2.155,0.456-4.209-0.08
		c-2.052-0.539-2.352-1.369-4.339-1.133c-1.988,0.234-3.392,1.079-3.112,3.494c0.281,2.413,0.504,2.015,1.15,3.147
		c0.647,1.134-0.228,3.592-0.253,3.999c-0.027,0.409,1.96,3.382,2.038,4.133c0.079,0.746-0.096,1.708,0.314,1.866
		c0.413,0.157,1.324,0.26,1.511,0.119c0.267-0.203-2.155-3.42-1.921-5.84c0.41,0.314,1.574,2.763,1.881,3.54
		c0.31,0.773,0.138,1.771,0.138,1.771s1.61,0.347,1.689,0.112c0.083-0.238-1.962-3.534-1.943-4.439
		c0.02-0.908,0.686-3.6,1.049-3.614c0.24-0.007,0.792,0.317,1.585,0.33c0.792,0.014,1.406,0.709,1.434,1.501
		c0.016,0.444,0.041,0.852,0.09,1.073c0.509,2.305,0.342,5.213,0.351,5.372c0.009,0.16,0.296,0.02,0.374,0.177
		c0.078,0.158,0,0.433,0.156,0.549c0.156,0.12,1.412,0,1.607,0c0.197,0-0.629-0.877-0.902-1.178
		c-0.271-0.297-0.315-3.818-0.188-4.821c0.066-0.526,0.06-2.404,0.273-2.55c0.268,1.057,0.152,1.609,0.209,2.059
		c0.059,0.456,0.276,0.956,0.315,1.437c0.154,1.928,0,3.758,0.096,3.816c0.098,0.059,0.254,0,0.335,0.176
		c0.077,0.176,0.059,0.549,0.059,0.549s1.645,0.278,1.528-0.02c-0.118-0.294-0.592-0.924-0.806-1.257
		c-0.208-0.333-0.534-4.557-0.172-5.949c0.363-1.387,1.285-2.151,1.364-4.014c0.705-0.837,0.821-3.202,1.334-3.278
		c0.512-0.077,1.273,0.517,1.698,0.733c0.427,0.22,1.485-0.297,1.256-0.706C67.835,80.276,67.171,79.509,67.017,79.064z"/>
</g>
</svg>
