<?xml version="1.0" encoding="utf-8"?>
<svg xmlns="http://www.w3.org/2000/svg"
	xmlns:xlink="http://www.w3.org/1999/xlink"
	width="40px" height="41px" viewBox="0 0 40 41">
<path fillRule="evenodd" d="M 15.83 0.71C 11.77 1.23 9.48 4.03 8.2 6.69 7.37 6.79 6.54 7 5.74 7.34 3.56 8.27 1.88 9.98 0.99 12.18 0.11 14.37 0.13 16.78 1.06 18.95 2.42 22.13 5.43 24.19 8.84 24.34 8.84 24.34 15.3 39.47 15.3 39.47 15.39 39.67 15.54 39.84 15.74 39.94 15.74 39.94 17.58 40.9 17.58 40.9 17.83 41.03 18.13 41.05 18.39 40.93 18.39 40.93 21.69 39.53 21.69 39.53 21.9 39.44 22.07 39.29 22.17 39.09 22.17 39.09 22.66 38.13 22.66 38.13 22.67 38.11 22.69 38.08 22.7 38.05 22.79 37.82 22.79 37.56 22.69 37.32 22.69 37.32 21.61 34.78 21.61 34.78 21.51 34.55 21.32 34.36 21.08 34.27 21.08 34.27 20.9 34.19 20.9 34.19 20.9 34.19 20.97 34.01 20.97 34.01 21.07 33.78 21.06 33.51 20.97 33.28 20.97 33.28 20.75 32.78 20.75 32.78 20.65 32.55 20.46 32.36 20.23 32.27 20.23 32.27 18.84 31.71 18.84 31.71 18.84 31.71 19.4 30.32 19.4 30.32 19.49 30.09 19.49 29.82 19.39 29.59 19.39 29.59 18.64 27.83 18.64 27.83 18.54 27.6 18.35 27.41 18.12 27.32 18.12 27.32 18.01 27.28 18.01 27.28 18.01 27.28 18.05 27.17 18.05 27.17 18.15 26.93 18.14 26.67 18.04 26.43 18.04 26.43 17.35 24.81 17.35 24.81 17.25 24.57 17.06 24.39 16.82 24.29 16.82 24.29 16.46 24.15 16.46 24.15 16.46 24.15 16.61 23.78 16.61 23.78 16.7 23.55 16.7 23.28 16.6 23.05 16.6 23.05 15.87 21.35 15.87 21.35 16.54 20.59 17.06 19.74 17.44 18.8 18.32 16.6 18.3 14.2 17.37 12.02 16.1 9.04 13.38 7.12 10.37 6.71 11.5 4.77 13.28 2.96 16.08 2.6 21.02 1.97 23.8 5.37 24.88 7.1 24.88 7.1 21.29 12.38 21.29 12.38 21.11 12.64 21.08 12.99 21.21 13.29 21.21 13.29 27.31 27.58 27.31 27.58 27.41 27.82 27.6 28 27.83 28.1 28.07 28.19 28.33 28.19 28.56 28.09 28.56 28.09 39.23 23.56 39.23 23.56 39.47 23.45 39.65 23.26 39.74 23.03 39.83 22.81 39.84 22.55 39.73 22.3 39.73 22.3 33.63 8.01 33.63 8.01 33.5 7.71 33.23 7.49 32.91 7.44 32.91 7.44 26.67 6.37 26.67 6.37 26.24 5.66 25.53 4.62 24.5 3.62 22.1 1.3 19.1 0.29 15.83 0.71ZM 9.99 12.87C 9.75 13.48 9.28 13.96 8.67 14.21 7.42 14.74 5.97 14.16 5.44 12.91 5.18 12.31 5.18 11.64 5.42 11.03 5.67 10.42 6.13 9.94 6.74 9.68 6.87 9.63 7 9.59 7.14 9.56 6.79 10.79 6.68 11.68 6.67 11.8 6.61 12.33 6.99 12.8 7.51 12.86 8.04 12.93 8.51 12.55 8.57 12.02 8.57 12 8.68 11.11 9.04 9.88 9.45 10.15 9.78 10.53 9.97 10.99 10.23 11.59 10.24 12.26 9.99 12.87Z" fill="rgb(255,255,255)"/></svg>