<?xml version="1.0" encoding="utf-8"?>
<svg xmlns="http://www.w3.org/2000/svg"
	xmlns:xlink="http://www.w3.org/1999/xlink"
	width="36px" height="41px" viewBox="0 0 36 41">
<path fillRule="evenodd" d="M 18.47 41C 18.47 41 18.45 41 18.45 41 18.45 41 18 41 18 41 18 41 17.55 41 17.55 41 17.55 41 17.53 41 17.53 41 17.53 41-0 41-0 41-0 41-0 34.18-0 32.95-0 31.73 2.18 29.93 7.03 28.16 8.55 27.6 10.1 26.84 11.03 26.27 11.23 26.15 11.46 26.07 11.71 26.07 12.05 26.07 12.35 26.21 12.58 26.43 12.58 26.43 12.58 26.43 12.58 26.43 14.05 27.87 16.75 28.31 17.68 28.31 17.76 28.31 17.92 28.31 18 28.31 18.08 28.31 18.24 28.31 18.32 28.31 19.24 28.31 21.95 27.87 23.42 26.43 23.42 26.43 23.42 26.43 23.42 26.43 23.65 26.21 23.95 26.07 24.29 26.07 24.54 26.07 24.77 26.15 24.97 26.27 25.9 26.84 27.45 27.6 28.97 28.16 33.82 29.93 36 31.73 36 32.95 36 34.18 36 41 36 41 36 41 18.47 41 18.47 41ZM 25.75 12.87C 25.75 12.87 26.46 13.2 26.46 14.52 26.21 17.83 24.91 16.4 24.64 17.85 24.19 20.26 22.08 22.01 20.76 22.61 19.9 23.01 19 23.18 18.05 23.15 17.1 23.18 16.2 23 15.33 22.61 14.02 22.01 11.9 20.26 11.46 17.85 11.19 16.4 9.88 17.83 9.63 14.52 9.63 13.2 10.35 12.87 10.35 12.87 10.35 12.87 9.95 10.92 9.84 9.41 9.69 7.44 7.24 4.62 8.32 4.62 10.22 4.62 11.96 4.07 13.54 3.4 15.12 2.72 16.5-0 18.01-0 18.02-0 18.07-0 18.09-0 19.59-0 20.97 2.72 22.55 3.4 24.13 4.07 25.87 4.62 27.78 4.62 28.86 4.62 26.4 7.44 26.25 9.41 26.14 10.92 25.75 12.87 25.75 12.87ZM 19.94 4.15C 19.94 4.14 19.94 4.13 19.94 4.12 19.94 4.11 19.93 4.11 19.93 4.1 19.9 3.83 19.68 3.62 19.4 3.62 19.39 3.62 19.38 3.62 19.38 3.62 19.38 3.62 18.06 3.62 18.06 3.62 18.06 3.62 18.04 3.62 18.04 3.62 18.04 3.62 16.7 3.62 16.7 3.62 16.7 3.62 16.7 3.62 16.69 3.62 16.39 3.64 16.15 3.89 16.15 4.19 16.15 4.19 16.16 4.19 16.16 4.2 16.15 4.2 16.15 4.21 16.15 4.21 16.15 4.54 16.15 5.12 16.15 5.51 16.15 6.42 17.4 7.37 18.05 7.37 18.7 7.37 19.94 6.42 19.94 5.51 19.94 5.09 19.94 4.51 19.94 4.18 19.94 4.17 19.94 4.16 19.94 4.15Z" fill="rgb(255,255,255)"/></svg>