<?xml version="1.0" encoding="utf-8"?>
<svg xmlns="http://www.w3.org/2000/svg"
	xmlns:xlink="http://www.w3.org/1999/xlink"
	width="27px" height="43px" viewBox="0 0 27 43">
<path fillRule="evenodd" d="M 25.02 29.94C 23.23 31.76 18.79 34.8 18.79 34.8 18.79 34.8 14.35 31.76 12.56 29.94 10.33 27.69 10.59 26.57 10.59 16.72 10.59 16.72 11.29 16.9 12.32 16.9 14.13 16.9 16.96 16.33 18.79 13.18 20.62 16.33 23.45 16.9 25.26 16.9 26.29 16.9 26.99 16.72 26.99 16.72 26.99 26.57 27.25 27.69 25.02 29.94ZM 24.48 20.62C 24.48 20.62 24.48 19.32 24.48 19.32 24.48 19.32 23.47 19.27 23.47 19.27 21.92 19.19 20.58 18.66 19.5 17.67 19.5 17.67 18.79 17.02 18.79 17.02 18.79 17.02 18.08 17.67 18.08 17.67 17 18.66 15.66 19.19 14.11 19.27 14.11 19.27 13.1 19.32 13.1 19.32 13.1 19.32 13.1 20.62 13.1 20.62 13.09 23.36 13.09 25.02 13.27 26.07 13.42 26.96 13.69 27.46 14.43 28.2 15.32 29.11 17.16 30.47 18.18 31.2 18.18 31.2 18.79 31.63 18.79 31.63 18.79 31.63 19.4 31.2 19.4 31.2 20.42 30.47 22.26 29.11 23.15 28.2 23.89 27.46 24.16 26.96 24.31 26.07 24.49 25.02 24.49 23.36 24.48 20.62ZM 19.87 27.72C 19.87 27.72 17.6 27.72 17.6 27.72 17.6 27.72 17.6 25.39 17.6 25.39 17.6 25.39 15.18 25.39 15.18 25.39 15.18 25.39 15.18 23.07 15.18 23.07 15.18 23.07 17.6 23.07 17.6 23.07 17.6 23.07 17.6 20.59 17.6 20.59 17.6 20.59 19.87 20.59 19.87 20.59 19.87 20.59 19.87 23.07 19.87 23.07 19.87 23.07 22.14 23.07 22.14 23.07 22.14 23.07 22.14 25.39 22.14 25.39 22.14 25.39 19.87 25.39 19.87 25.39 19.87 25.39 19.87 27.72 19.87 27.72ZM 16.84 12.01C 15.84 13.73 14.32 14.58 12.32 14.58 11.68 14.58 11.22 14.48 11.15 14.46 11.15 14.46 8.28 13.64 8.28 13.64 8.28 13.64 8.32 16.72 8.32 16.72 8.32 17.74 8.32 18.67 8.31 19.52 8.3 23.36 8.29 25.47 8.58 27.11 8.93 29.2 9.73 30.38 10.94 31.6 11.72 32.39 12.91 33.36 14.05 34.25 14.05 34.25 14.05 40.29 14.05 40.29 14.05 41.76 12.94 43 11.51 43 11.51 43 11.44 43 11.44 43 10.01 43 8.85 41.81 8.85 40.34 8.85 41.81 7.69 43 6.26 43 6.26 43 6.18 43 6.18 43 4.75 43 3.55 41.76 3.55 40.29 3.55 40.29 3.55 27.72 3.55 27.72 3.26 28.38 2.62 28.89 1.88 28.89 1.88 28.89 1.81 28.89 1.81 28.89 0.84 28.89-0 28.05-0 27.05-0 27.05-0 12.52-0 12.52-0 11.55 0.85 10.68 1.7 10.65 1.7 10.65 1.7 10.7 1.7 10.7 1.7 10.7 1.81 10.7 1.81 10.7 1.81 10.7 1.88 10.7 1.88 10.7 1.88 10.7 5.5 10.7 5.5 10.7 4.03 9.53 3.07 7.87 3.07 5.88 3.07 2.65 5.63-0 8.79-0 11.95-0 14.51 2.64 14.51 5.88 14.51 7.86 13.55 9.53 12.08 10.7 12.08 10.7 17.62 10.7 17.62 10.7 17.62 10.7 16.84 12.01 16.84 12.01Z" fill="rgb(255,255,255)"/></svg>