<?xml version="1.0" encoding="utf-8"?>
<svg xmlns="http://www.w3.org/2000/svg"
	xmlns:xlink="http://www.w3.org/1999/xlink"
	width="34px" height="34px" viewBox="0 0 34 34">
<path fillRule="evenodd" d="M 29.17 6.73C 29.17 6.73 26.1 6.73 26.1 6.73 26.1 6.73 26.1 4.84 26.1 4.84 26.1 2.17 23.92-0.02 21.25-0.02 21.25-0.02 12.76-0.02 12.76-0.02 10.09-0.02 7.9 2.17 7.9 4.84 7.9 4.84 7.9 6.73 7.9 6.73 7.9 6.73 4.84 6.73 4.84 6.73 2.17 6.73-0.02 8.57-0.02 11.24-0.02 11.24-0.02 29.16-0.02 29.16-0.02 31.83 2.17 34.01 4.84 34.01 4.84 34.01 29.17 34.01 29.17 34.01 31.83 34.01 34.02 31.83 34.02 29.16 34.02 29.16 34.02 11.24 34.02 11.24 34.02 8.57 31.83 6.73 29.17 6.73ZM 10.5 4.84C 10.5 3.65 11.57 2.58 12.76 2.58 12.76 2.58 21.25 2.58 21.25 2.58 22.44 2.58 23.5 3.65 23.5 4.84 23.5 4.84 23.5 6.73 23.5 6.73 23.5 6.73 10.5 6.73 10.5 6.73 10.5 6.73 10.5 4.84 10.5 4.84ZM 24.8 23.62C 24.8 23.62 19.6 23.62 19.6 23.62 19.6 23.62 19.6 28.82 19.6 28.82 19.6 28.82 14.4 28.82 14.4 28.82 14.4 28.82 14.4 23.62 14.4 23.62 14.4 23.62 9.2 23.62 9.2 23.62 9.2 23.62 9.2 17.12 9.2 17.12 9.2 17.12 14.4 17.12 14.4 17.12 14.4 17.12 14.4 11.93 14.4 11.93 14.4 11.93 19.6 11.93 19.6 11.93 19.6 11.93 19.6 17.12 19.6 17.12 19.6 17.12 24.8 17.12 24.8 17.12 24.8 17.12 24.8 23.62 24.8 23.62Z" fill="rgb(255,255,255)"/></svg>