<?xml version="1.0" encoding="utf-8"?>
<svg xmlns="http://www.w3.org/2000/svg"
	xmlns:xlink="http://www.w3.org/1999/xlink"
	width="41px" height="37px" viewBox="0 0 41 37">
<path fillRule="evenodd" d="M 37.13 15.2C 37.13 15.2 37.13 10.07 37.13 10.07 37.13 10.07 40.99 10.07 40.99 10.07 40.99 10.07 40.99 15.2 40.99 15.2 40.99 15.2 37.13 15.2 37.13 15.2ZM 34.27 36.99C 34.27 36.99 28.92 36.99 28.92 36.99 28.92 36.99 28.92 34 28.92 34 28.92 34 12.2 34 12.2 34 12.2 34 12.2 36.99 12.2 36.99 12.2 36.99 6.84 36.99 6.84 36.99 6.84 36.99 6.84 34 6.84 34 6.84 34 4.7 34 4.7 34 4.7 34 4.7 32.15 4.7 32.15 4.7 32.15 35.99 32.15 35.99 32.15 35.99 32.15 35.99 34 35.99 34 35.99 34 34.27 34 34.27 34 34.27 34 34.27 36.99 34.27 36.99ZM 4.7 3.59C 4.7 3.59 7.98-0.4 20.41 0.03 32.84 0.46 35.99 3.59 35.99 3.59 35.99 3.59 35.99 30.87 35.99 30.87 35.99 30.87 4.7 30.87 4.7 30.87 4.7 30.87 4.7 3.59 4.7 3.59ZM 9.7 3.59C 8.99 3.59 8.41 4.17 8.41 4.88 8.41 5.58 8.99 6.15 9.7 6.15 10.41 6.15 10.98 5.58 10.98 4.87 10.98 4.17 10.41 3.59 9.7 3.59ZM 30.84 3.31C 30.13 3.31 29.56 3.88 29.56 4.59 29.56 5.3 30.13 5.87 30.84 5.87 31.55 5.87 32.13 5.3 32.13 4.59 32.13 3.88 31.55 3.31 30.84 3.31ZM 31.59 28.24C 33.07 28.24 34.27 27.04 34.27 25.57 34.27 24.09 33.07 22.89 31.59 22.89 30.11 22.89 28.92 24.09 28.92 25.57 28.92 27.04 30.11 28.24 31.59 28.24ZM 28.48 16.58C 28.48 16.58 30.26 16.58 30.26 16.58 30.26 16.58 30.75 20.12 30.75 20.12 30.75 20.12 33.13 20.12 33.13 20.12 33.13 20.12 33.13 8.51 33.13 8.51 33.13 8.51 21.13 8.51 21.13 8.51 21.13 8.51 21.13 20.12 21.13 20.12 21.13 20.12 24.06 20.12 24.06 20.12 24.06 20.12 24.16 17 24.16 17 24.16 17 26.4 16.58 26.4 16.58 26.4 16.58 27.42 17.8 27.42 17.8 27.42 17.8 28.48 16.58 28.48 16.58ZM 14.41 29.44C 14.41 29.44 26.42 29.44 26.42 29.44 26.42 29.44 26.42 28.02 26.42 28.02 26.42 28.02 14.41 28.02 14.41 28.02 14.41 28.02 14.41 29.44 14.41 29.44ZM 14.41 26.81C 14.41 26.81 26.42 26.81 26.42 26.81 26.42 26.81 26.42 25.39 26.42 25.39 26.42 25.39 14.41 25.39 14.41 25.39 14.41 25.39 14.41 26.81 14.41 26.81ZM 14.41 24.1C 14.41 24.1 26.42 24.1 26.42 24.1 26.42 24.1 26.42 22.68 26.42 22.68 26.42 22.68 14.41 22.68 14.41 22.68 14.41 22.68 14.41 24.1 14.41 24.1ZM 14.25 20.12C 14.25 20.12 14.99 20.12 14.99 20.12 14.99 20.12 14.21 19.08 14.21 19.08 14.21 19.08 14.14 19.95 14.14 19.95 14.14 19.95 14.25 20.12 14.25 20.12ZM 13.52 17.91C 13.52 17.91 14.31 17.91 14.31 17.91 14.31 17.91 15.95 20.12 15.95 20.12 15.95 20.12 19.13 20.12 19.13 20.12 19.13 20.12 19.13 8.51 19.13 8.51 19.13 8.51 7.12 8.51 7.12 8.51 7.12 8.51 7.12 20.12 7.12 20.12 7.12 20.12 10.11 20.12 10.11 20.12 10.11 20.12 11.95 17.91 11.95 17.91 11.95 17.91 12.67 17.91 12.67 17.91 12.67 17.91 13.52 17.91 13.52 17.91ZM 11.12 20.12C 11.12 20.12 11.89 20.12 11.89 20.12 11.89 20.12 11.97 19.95 11.97 19.95 11.97 19.95 11.88 19.25 11.88 19.25 11.88 19.25 11.12 20.12 11.12 20.12ZM 9.52 28.24C 11 28.24 12.2 27.04 12.2 25.57 12.2 24.09 11 22.89 9.52 22.89 8.04 22.89 6.84 24.09 6.84 25.57 6.84 27.04 8.04 28.24 9.52 28.24ZM 11.08 15.95C 10.91 16.13 10.47 16.69 10.57 17.61 9.5 17.58 9.3 15.81 11.06 15.5 11.07 15.34 11.1 15.18 11.15 15.03 11.22 14.41 11.51 13.4 12.86 13.37 14.42 13.33 14.97 14.57 15.04 15.18 15.06 15.27 15.07 15.37 15.08 15.47 16.26 15.68 17.09 17.6 15.41 17.61 15.47 16.98 15.19 16.39 15.03 16.1 14.82 16.98 14.02 17.64 13.07 17.64 12.07 17.64 11.24 16.91 11.08 15.95ZM 13.07 17.07C 13.87 17.07 14.52 16.42 14.52 15.62 14.52 15.6 14.52 15.59 14.52 15.57 14.52 15.57 14.48 15.54 14.48 15.54 14.48 15.54 13.44 15.66 13.11 15.57 13.11 15.57 13.11 14.8 13.11 14.8 13.11 14.8 12.59 15.78 12.29 15.67 12.29 15.11 12.12 15.05 12.12 15.05 12.12 15.05 11.91 15.55 11.62 15.65 11.64 16.44 12.28 17.07 13.07 17.07ZM 24.7 13.4C 24.7 11.87 25.94 10.63 27.47 10.63 29.01 10.63 30.25 11.87 30.25 13.4 30.25 14.92 29.01 16.16 27.47 16.16 25.94 16.16 24.7 14.92 24.7 13.4ZM-0.02 10.36C-0.02 10.36 3.84 10.36 3.84 10.36 3.84 10.36 3.84 15.49 3.84 15.49 3.84 15.49-0.02 15.49-0.02 15.49-0.02 15.49-0.02 10.36-0.02 10.36Z" fill="rgb(255,255,255)"/></svg>