<?xml version="1.0" encoding="utf-8"?>
<svg xmlns="http://www.w3.org/2000/svg"
	xmlns:xlink="http://www.w3.org/1999/xlink"
	width="39px" height="32px" viewBox="0 0 39 32">
<path fillRule="evenodd" d="M 0.01 32C 0.01 32 2.76 19.91 2.76 19.91 2.76 19.91 36.23 19.91 36.23 19.91 36.23 19.91 38.99 32 38.99 32 38.99 32 0.01 32 0.01 32ZM 22.79 27.87C 22.79 27.87 16.21 27.87 16.21 27.87 16.21 27.87 15.65 30.34 15.65 30.34 15.65 30.34 23.34 30.34 23.34 30.34 23.34 30.34 22.79 27.87 22.79 27.87ZM 2.85 11.72C 2.85 11.72 2.85-0 2.85-0 2.85-0 15.41-0 15.41-0 15.41-0 23.59-0 23.59-0 23.59-0 36.15-0 36.15-0 36.15-0 36.15 11.72 36.15 11.72 36.15 11.72 36.15 11.72 36.15 11.72 36.15 11.72 36.15 19.14 36.15 19.14 36.15 19.14 2.85 19.14 2.85 19.14 2.85 19.14 2.85 11.72 2.85 11.72ZM 5.22 17.23C 5.22 17.23 33.78 17.23 33.78 17.23 33.78 17.23 33.78 17.23 33.78 17.23 33.78 17.23 33.78 2.3 33.78 2.3 33.78 2.3 23.08 2.3 23.08 2.3 23.08 2.3 15.92 2.3 15.92 2.3 15.92 2.3 5.22 2.3 5.22 2.3 5.22 2.3 5.22 17.23 5.22 17.23ZM 17.4 6.96C 17.4 8.56 16.06 9.86 14.41 9.86 12.76 9.86 11.42 8.56 11.42 6.96 11.42 5.36 12.76 4.07 14.41 4.07 16.06 4.07 17.4 5.36 17.4 6.96ZM 14.46 11.57C 14.46 11.57 15.56 10.29 15.56 10.29 15.56 10.29 17.82 11 17.82 11 17.82 11 17.82 15.94 17.82 15.94 17.82 15.94 17.12 15.94 17.12 15.94 17.12 15.94 17.07 16.8 17.07 16.8 17.07 16.8 11.67 16.8 11.67 16.8 11.67 16.8 11.62 15.94 11.62 15.94 11.62 15.94 10.68 15.94 10.68 15.94 10.68 15.94 10.68 10.88 10.68 10.88 10.68 10.88 13.32 10.29 13.32 10.29 13.32 10.29 14.46 11.57 14.46 11.57ZM 18.91 7.21C 18.91 5.15 21.42 3.47 24.51 3.47 27.61 3.47 30.12 5.15 30.12 7.21 30.12 8.72 28.53 10.05 25.74 10.85 23.62 11.46 20.53 11.93 20.5 11.93 20.5 11.93 20.04 12 20.04 12 20.04 12 21.11 10.18 21.11 10.18 19.73 9.47 18.91 8.38 18.91 7.21ZM 21.52 9.89C 21.52 9.89 21.74 9.99 21.74 9.99 21.74 9.99 20.9 11.42 20.9 11.42 21.84 11.27 24.01 10.89 25.62 10.43 26.84 10.08 29.67 9.07 29.67 7.21 29.67 5.39 27.36 3.91 24.51 3.91 21.67 3.91 19.36 5.39 19.36 7.21 19.36 8.26 20.17 9.27 21.52 9.89Z" fill="rgb(255,255,255)"/></svg>