<svg xmlns="http://www.w3.org/2000/svg" width="52" height="52" viewBox="0 0 52 52">
  <defs>
    <style>
      .cls-1 {
        fill: #fff;
        fill-rule: evenodd;
      }
    </style>
  </defs>
  <path id="Forma_1" data-name="Forma 1" class="cls-1" d="M535,4493.07a21.915,21.915,0,0,0-9.438,41.7l0.685-13.26s-1.29-.43-1.573-0.57c-2.738-1.2-4.727-4.75-4.727-9.36,0-5.03,3.9-9.36,7.672-9.4h0.014c3.772,0.04,7.674,4.37,7.674,9.4,0,4.61-1.993,8.16-4.726,9.36-0.021.01-1.586,0.58-1.586,0.58l0.767,14.75a22.074,22.074,0,0,0,5.241.65,21.731,21.731,0,0,0,6.971-1.15l0.679-13.14a7.021,7.021,0,0,1-4.273-2.96c-1.187-1.78.911-17.49,0.911-17.49h1.367v14.75h1.355v-14.75h1.48v14.75h1.351v-14.75h1.537v14.75h1.354v-14.75h1.048s2.1,15.72.91,17.49a7.088,7.088,0,0,1-4.227,2.96l-0.06.02,0.588,11.3A21.914,21.914,0,0,0,535,4493.07Zm-11.843,16.28a5.757,5.757,0,0,1,.188-0.63,0.288,0.288,0,0,0-.159-0.32,0.266,0.266,0,0,0-.345.07s-0.149.24-.367,0.6a6.078,6.078,0,0,0-.617,1.39,11.408,11.408,0,0,0-.423,2.02,9.642,9.642,0,0,0-.031,1.18,5.678,5.678,0,0,0,.224,1.24,8.082,8.082,0,0,0,1.96,3.58,7,7,0,0,0,1.048.85l0.1,0.07c0.061,0.04.119,0.07,0.176,0.11a2.389,2.389,0,0,0,.422.17,0.235,0.235,0,0,0,.2-0.42,2.581,2.581,0,0,1-.312-0.35,5.308,5.308,0,0,1-.4-0.55c-0.107-.15-0.234-0.33-0.351-0.5a17.7,17.7,0,0,1-1.384-3.4,4.683,4.683,0,0,1-.194-0.94,9.659,9.659,0,0,1-.055-1.01,13.315,13.315,0,0,1,.083-1.86A7.07,7.07,0,0,1,523.159,4509.35ZM535,4489a26,26,0,1,0,26,26A26.029,26.029,0,0,0,535,4489Zm0,50.06A24.06,24.06,0,1,1,559.063,4515,24.086,24.086,0,0,1,535,4539.06Z" transform="translate(-509 -4489)"/>
</svg>
