<svg xmlns="http://www.w3.org/2000/svg" width="35.97" height="46" viewBox="0 0 35.97 46">
  <defs>
    <style>
      .cls-1 {
        fill: #fff;
        fill-rule: evenodd;
      }
    </style>
  </defs>
  <path id="Forma_1" data-name="Forma 1" class="cls-1" d="M1048.56,4512.58a0.94,0.94,0,1,1-.94.94A0.941,0.941,0,0,1,1048.56,4512.58Zm5.41-6.9a1.245,1.245,0,1,1-1.25,1.24A1.242,1.242,0,0,1,1053.97,4505.68Zm-10.86-2.04a1.67,1.67,0,1,1-1.68,1.67A1.684,1.684,0,0,1,1043.11,4503.64Zm17.56-3.82a19.345,19.345,0,0,0-14.24-6.82c-4.63,0-9.03,1.92-13.08,5.71l-0.02.02c-3.95,4.03-3.43,7.76-2.78,12.49,0.04,0.29.08,0.59,0.12,0.88,0.11,0.81-.6,2.05-1.28,3.24-1.03,1.8-2.09,3.67-.79,4.55,2.22,1.5,2.6,4.46,2.98,7.32,0.08,0.68.18,1.38,0.29,2.06,0.2,1.18,1.2,1.76,3.06,1.76a25.356,25.356,0,0,0,2.57-.2,17.459,17.459,0,0,1,1.98-.17,2.923,2.923,0,0,1,.74.08c2.23,0.6,4.19,5.09,4.89,7.78a0.671,0.671,0,0,0,.45.46,1.1,1.1,0,0,0,.18.02,0.62,0.62,0,0,0,.44-0.18l11.46-10.87a0.628,0.628,0,0,0,.17-0.65c-1.01-3.15,1.09-6.22,2.95-8.93a27.127,27.127,0,0,0,2.1-3.4C1065.27,4509.9,1063.53,4503.38,1060.67,4499.82Zm-15.85,10.71-0.43-.67a4.48,4.48,0,0,1-.96.16l-0.18.78a0.518,0.518,0,0,1-.62.39l-1.64-.37a0.518,0.518,0,0,1-.39-0.62l0.18-.77a5.476,5.476,0,0,1-.8-0.56l-0.67.42a0.526,0.526,0,0,1-.72-0.16l-0.9-1.41a0.524,0.524,0,0,1,.17-0.72l0.67-.42a5.1,5.1,0,0,1-.16-0.95l-0.78-.18a0.51,0.51,0,0,1-.39-0.62l0.37-1.63a0.525,0.525,0,0,1,.62-0.39l0.78,0.18a5.387,5.387,0,0,1,.56-0.79l-0.42-.67a0.519,0.519,0,0,1,.16-0.72l1.42-.89a0.522,0.522,0,0,1,.72.17l0.43,0.67a4.378,4.378,0,0,1,.96-0.16l0.17-.78a0.533,0.533,0,0,1,.63-0.39l1.63,0.37a0.516,0.516,0,0,1,.4.62l-0.18.77a5.476,5.476,0,0,1,.8.56l0.67-.42a0.526,0.526,0,0,1,.72.16l0.9,1.41a0.524,0.524,0,0,1-.17.72l-0.67.42a5.065,5.065,0,0,1,.16.96l0.78,0.17a0.51,0.51,0,0,1,.39.62l-0.37,1.63a0.518,0.518,0,0,1-.62.39l-0.78-.18a4.4,4.4,0,0,1-.57.79l0.43,0.67a0.517,0.517,0,0,1-.16.72l-1.42.89A0.52,0.52,0,0,1,1044.82,4510.53Zm6.86,2.94-0.44.12a2.5,2.5,0,0,1-.07.54l0.39,0.23a0.283,0.283,0,0,1,.11.39l-0.47.82a0.305,0.305,0,0,1-.41.1l-0.39-.22a2.238,2.238,0,0,1-.43.33l0.12,0.43a0.292,0.292,0,0,1-.21.36l-0.91.24a0.286,0.286,0,0,1-.36-0.2l-0.12-.43a2.518,2.518,0,0,1-.54-0.08l-0.23.39a0.294,0.294,0,0,1-.4.11l-0.82-.47a0.294,0.294,0,0,1-.11-0.4l0.23-.39a1.968,1.968,0,0,1-.33-0.43l-0.44.12a0.292,0.292,0,0,1-.36-0.21l-0.24-.9a0.286,0.286,0,0,1,.2-0.36l0.44-.12a2.5,2.5,0,0,1,.07-0.54l-0.39-.22a0.294,0.294,0,0,1-.11-0.4l0.47-.81a0.3,0.3,0,0,1,.4-0.11l0.4,0.22a3.5,3.5,0,0,1,.43-0.33l-0.12-.43a0.292,0.292,0,0,1,.21-0.36l0.91-.24a0.292,0.292,0,0,1,.36.21l0.12,0.43a2.5,2.5,0,0,1,.54.07l0.23-.39a0.294,0.294,0,0,1,.4-0.11l0.82,0.47a0.294,0.294,0,0,1,.11.4l-0.23.39a2.238,2.238,0,0,1,.33.43l0.44-.11a0.286,0.286,0,0,1,.36.2l0.24,0.91A0.28,0.28,0,0,1,1051.68,4513.47Zm6.41-6.6-0.57.15a3.566,3.566,0,0,1-.1.72l0.52,0.29a0.383,0.383,0,0,1,.14.53l-0.62,1.08a0.392,0.392,0,0,1-.53.14l-0.52-.3a3.058,3.058,0,0,1-.58.44l0.16,0.58a0.393,0.393,0,0,1-.28.47l-1.21.32a0.383,0.383,0,0,1-.47-0.27l-0.16-.58a2.959,2.959,0,0,1-.72-0.09l-0.3.51a0.39,0.39,0,0,1-.53.15l-1.08-.62a0.4,0.4,0,0,1-.15-0.53l0.3-.52a4.115,4.115,0,0,1-.44-0.57l-0.58.15a0.375,0.375,0,0,1-.47-0.27l-0.33-1.2a0.384,0.384,0,0,1,.28-0.47l0.58-.16a2.82,2.82,0,0,1,.09-0.71l-0.52-.3a0.389,0.389,0,0,1-.14-0.53l0.63-1.07a0.39,0.39,0,0,1,.53-0.15l0.51,0.3a3.543,3.543,0,0,1,.58-0.44l-0.15-.57a0.371,0.371,0,0,1,.27-0.47l1.21-.33a0.4,0.4,0,0,1,.48.28l0.15,0.57a4.429,4.429,0,0,1,.72.09l0.3-.51a0.381,0.381,0,0,1,.53-0.14l1.08,0.62a0.393,0.393,0,0,1,.15.53l-0.3.51a3.946,3.946,0,0,1,.44.57l0.58-.15a0.378,0.378,0,0,1,.47.27l0.33,1.2A0.4,0.4,0,0,1,1058.09,4506.87Z" transform="translate(-1028.03 -4493)"/>
</svg>
