<?xml version="1.0" encoding="utf-8"?>
<svg xmlns="http://www.w3.org/2000/svg"
	xmlns:xlink="http://www.w3.org/1999/xlink"
	width="29px" height="29px" viewBox="0 0 29 29">
<path fillRule="evenodd" d="M 28.57 22.65C 28.63 23.11 28.49 23.5 28.16 23.84 28.16 23.84 24.19 27.78 24.19 27.78 24.01 27.98 23.78 28.15 23.49 28.29 23.2 28.43 22.92 28.52 22.64 28.56 22.62 28.56 22.56 28.56 22.46 28.57 22.36 28.58 22.23 28.59 22.07 28.59 21.69 28.59 21.08 28.52 20.24 28.39 19.39 28.26 18.36 27.95 17.13 27.44 15.91 26.93 14.52 26.17 12.97 25.15 11.42 24.14 9.77 22.75 8.02 20.98 6.63 19.6 5.48 18.29 4.56 17.04 3.65 15.78 2.91 14.62 2.36 13.56 1.8 12.49 1.38 11.53 1.1 10.66 0.82 9.8 0.64 9.05 0.54 8.43 0.44 7.8 0.4 7.31 0.42 6.95 0.44 6.59 0.45 6.39 0.45 6.35 0.49 6.07 0.58 5.79 0.72 5.5 0.85 5.21 1.02 4.98 1.22 4.8 1.22 4.8 5.19 0.83 5.19 0.83 5.47 0.55 5.79 0.41 6.14 0.41 6.4 0.41 6.63 0.49 6.83 0.64 7.03 0.79 7.2 0.97 7.34 1.19 7.34 1.19 10.53 7.25 10.53 7.25 10.71 7.57 10.76 7.91 10.68 8.29 10.6 8.67 10.43 8.99 10.17 9.25 10.17 9.25 8.71 10.71 8.71 10.71 8.67 10.75 8.63 10.81 8.6 10.9 8.57 10.99 8.56 11.07 8.56 11.13 8.64 11.54 8.82 12.02 9.1 12.56 9.34 13.04 9.7 13.62 10.2 14.31 10.7 14.99 11.4 15.78 12.32 16.68 13.21 17.59 14.01 18.3 14.7 18.81 15.4 19.32 15.98 19.69 16.45 19.93 16.92 20.17 17.27 20.31 17.52 20.36 17.52 20.36 17.9 20.44 17.9 20.44 17.94 20.44 18 20.42 18.09 20.39 18.18 20.36 18.24 20.33 18.28 20.29 18.28 20.29 19.98 18.56 19.98 18.56 20.34 18.24 20.76 18.08 21.24 18.08 21.57 18.08 21.84 18.14 22.04 18.26 22.04 18.26 22.07 18.26 22.07 18.26 22.07 18.26 27.83 21.66 27.83 21.66 28.25 21.92 28.49 22.25 28.57 22.65Z" fill="rgb(255,71,0)"/></svg>