<?xml version="1.0" encoding="utf-8"?>
<svg xmlns="http://www.w3.org/2000/svg"
	xmlns:xlink="http://www.w3.org/1999/xlink"
	width="24px" height="45px" viewBox="0 0 24 45">
<path fillRule="evenodd" d="M 23.32 26.53C 23.32 26.53 20.01 37.69 20.01 37.69 19.96 37.85 19.83 37.97 19.67 38 19.64 38.01 19.61 38.01 19.58 38.01 19.45 38.01 19.33 37.95 19.24 37.85 18.3 36.69 17 35.79 15.52 35.26 15.52 35.26 15.52 35.81 15.52 35.81 15.52 36.06 15.32 36.27 15.08 36.27 15.08 36.27 9.03 36.27 9.03 36.27 8.78 36.27 8.58 36.06 8.58 35.81 8.58 35.81 8.58 35.12 8.58 35.12 7.11 35.65 5.8 36.55 4.86 37.71 4.76 37.84 4.59 37.9 4.43 37.86 4.27 37.83 4.14 37.71 4.09 37.55 4.09 37.55 0.79 26.39 0.79 26.39 0.75 26.26 0.77 26.11 0.85 25.99 1.46 25.13 2.11 24.33 2.79 23.64 2.48 22.12 2.33 20.57 2.33 19.03 2.33 11.49 5.97 4.48 11.83 0.75 11.98 0.66 12.16 0.66 12.3 0.75 18.16 4.48 21.81 11.49 21.81 19.03 21.81 20.62 21.64 22.22 21.32 23.78 22 24.48 22.65 25.27 23.25 26.14 23.33 26.25 23.36 26.4 23.32 26.53ZM 12.07 9.78C 9.95 9.78 8.24 11.54 8.24 13.7 8.24 14.42 8.43 15.13 8.81 15.75 9.51 16.92 10.73 17.62 12.07 17.62 13.48 17.62 14.77 16.83 15.44 15.57 15.74 15 15.9 14.35 15.9 13.7 15.9 11.54 14.18 9.78 12.07 9.78ZM 19.51 16.47C 19.49 16.22 19.28 16.03 19.03 16.05 18.78 16.07 18.6 16.29 18.62 16.54 18.62 16.61 19.1 23.18 15.85 30.56 15.75 30.79 15.85 31.06 16.08 31.16 16.14 31.19 16.2 31.2 16.26 31.2 16.43 31.2 16.59 31.1 16.67 30.93 20 23.34 19.53 16.75 19.51 16.47ZM 12.07 16.71C 11.04 16.71 10.11 16.17 9.57 15.27 9.28 14.8 9.13 14.25 9.13 13.7 9.13 12.04 10.45 10.69 12.07 10.69 13.69 10.69 15.01 12.04 15.01 13.7 15.01 14.2 14.89 14.7 14.65 15.13 14.14 16.1 13.15 16.71 12.07 16.71ZM 9.32 37.32C 9.57 37.32 9.77 37.53 9.77 37.78 9.77 37.78 9.77 41.4 9.77 41.4 9.77 41.65 9.57 41.86 9.32 41.86 9.07 41.86 8.88 41.65 8.88 41.4 8.88 41.4 8.88 37.78 8.88 37.78 8.88 37.53 9.07 37.32 9.32 37.32ZM 12.05 37.32C 12.3 37.32 12.5 37.53 12.5 37.78 12.5 37.78 12.5 44.18 12.5 44.18 12.5 44.44 12.3 44.64 12.05 44.64 11.8 44.64 11.61 44.44 11.61 44.18 11.61 44.18 11.61 37.78 11.61 37.78 11.61 37.53 11.8 37.32 12.05 37.32ZM 14.66 37.32C 14.91 37.32 15.11 37.53 15.11 37.78 15.11 37.78 15.11 41.4 15.11 41.4 15.11 41.65 14.91 41.86 14.66 41.86 14.42 41.86 14.22 41.65 14.22 41.4 14.22 41.4 14.22 37.78 14.22 37.78 14.22 37.53 14.42 37.32 14.66 37.32Z" fill="rgb(255,71,0)"/></svg>