<?xml version="1.0" encoding="utf-8"?>
<!-- Generator: Adobe Illustrator 19.1.0, SVG Export Plug-In . SVG Version: 6.00 Build 0)  -->
<svg version="1.1" id="Слой_1" xmlns="http://www.w3.org/2000/svg" xmlns:xlink="http://www.w3.org/1999/xlink" x="0px" y="0px"
	 viewBox="0 0 62 54" style="enable-background:new 0 0 62 54;" xml:space="preserve">
<style type="text/css">
	.st0{fill:#B5CC87;}
</style>
<path class="st0" d="M25.301,36.051l1.438,3.579c-1.393,0.553-2.781,0.975-4.136,1.258l-0.791-3.774
	C22.947,36.876,24.12,36.519,25.301,36.051z M13.771,40.673c1.419,0.408,2.914,0.626,4.443,0.648l0.06-3.857
	c-1.188-0.019-2.342-0.184-3.432-0.497L13.771,40.673z M44.282,33.942c1.117,0.219,2.206,0.599,3.239,1.13l1.779-3.428
	c-1.362-0.697-2.797-1.198-4.269-1.484L44.282,33.942z M36.199,30.778l1.158,3.676c1.185-0.369,2.354-0.603,3.482-0.693
	l-0.311-3.842C39.113,30.032,37.656,30.322,36.199,30.778z M29.978,33.678c-0.435,0.271-0.863,0.52-1.283,0.753l1.885,3.367
	c0.473-0.264,0.957-0.542,1.442-0.844c0.666-0.41,1.317-0.776,1.957-1.099l-1.76-3.436C31.492,32.789,30.743,33.207,29.978,33.678z
	 M40.688,9.643c0,1.574-0.378,3.066-1.052,4.377L31,30.857c0,0-8.704-16.977-8.738-17.049c-0.609-1.258-0.95-2.674-0.95-4.166
	C21.313,4.317,25.649,0,31,0C36.351,0,40.688,4.317,40.688,9.643z M36.813,9.643c0-3.194-2.604-5.786-5.813-5.786
	c-3.209,0-5.813,2.592-5.813,5.786c0,3.194,2.604,5.786,5.813,5.786C34.209,15.429,36.813,12.837,36.813,9.643z M50.375,19.286
	h-9.09l-1.979,3.857h8.276l4.181,12.49l-1.336,1.469c1.423,1.281,2.161,2.46,2.164,2.464l0.409-0.245l3.622,10.822H5.374
	L9.256,38.56c0.136,0.094,0.242,0.184,0.394,0.279l2.059-3.262c-0.462-0.29-0.84-0.576-1.173-0.844l3.883-11.59h8.28
	c-0.821-1.597-1.468-2.859-1.979-3.857h-9.093L0,54h62L50.375,19.286z"/>
</svg>
