<svg xmlns="http://www.w3.org/2000/svg" xmlns:xlink="http://www.w3.org/1999/xlink" preserveAspectRatio="xMidYMid" width="62" height="54" viewBox="0 0 62 54">
  <defs>
    <style>
      .cls-1 {
        fill: #5c7e1c;
        fill-rule: evenodd;
      }
    </style>
  </defs>
  <path d="M25.301,36.051 L26.739,39.630 C25.346,40.183 23.958,40.605 22.603,40.888 L21.812,37.114 C22.947,36.876 24.120,36.518 25.301,36.051 ZM13.771,40.673 C15.190,41.080 16.684,41.298 18.213,41.321 L18.274,37.464 C17.085,37.445 15.931,37.279 14.842,36.966 L13.771,40.673 ZM44.282,33.942 C45.399,34.160 46.489,34.541 47.522,35.072 L49.300,31.644 C47.938,30.947 46.504,30.446 45.032,30.160 L44.282,33.942 ZM36.199,30.777 L37.357,34.454 C38.542,34.085 39.711,33.851 40.839,33.761 L40.528,29.919 C39.113,30.032 37.656,30.322 36.199,30.777 ZM29.978,33.678 C29.543,33.949 29.116,34.198 28.695,34.431 L30.580,37.799 C31.053,37.535 31.537,37.257 32.022,36.955 C32.688,36.545 33.339,36.179 33.978,35.855 L32.218,32.420 C31.492,32.789 30.743,33.207 29.978,33.678 ZM40.687,9.642 C40.687,11.217 40.309,12.709 39.635,14.019 L31.000,30.857 C31.000,30.857 22.296,13.880 22.262,13.808 C21.653,12.551 21.312,11.134 21.312,9.642 C21.312,4.316 25.649,-0.000 31.000,-0.000 C36.351,-0.000 40.687,4.317 40.687,9.642 ZM36.812,9.642 C36.812,6.448 34.209,3.857 31.000,3.857 C27.791,3.857 25.187,6.448 25.187,9.642 C25.187,12.837 27.791,15.428 31.000,15.428 C34.209,15.428 36.812,12.837 36.812,9.642 ZM50.375,19.285 L41.285,19.285 L39.306,23.143 L47.582,23.143 L51.764,35.633 L50.428,37.102 C51.851,38.383 52.589,39.562 52.592,39.566 L53.001,39.321 L56.623,50.143 L5.373,50.143 L9.256,38.560 C9.392,38.654 9.498,38.744 9.650,38.839 L11.708,35.576 C11.246,35.286 10.868,35.000 10.535,34.733 L14.418,23.143 L22.698,23.143 C21.876,21.545 21.229,20.284 20.718,19.285 L11.625,19.285 L-0.000,54.000 L62.000,54.000 L50.375,19.285 Z" class="cls-1"/>
</svg>
