<?xml version="1.0" encoding="utf-8"?>
<!-- Generator: Adobe Illustrator 19.1.0, SVG Export Plug-In . SVG Version: 6.00 Build 0)  -->
<svg version="1.1" id="Слой_1" xmlns="http://www.w3.org/2000/svg" xmlns:xlink="http://www.w3.org/1999/xlink" x="0px" y="0px"
	 viewBox="0 0 54.031 53.97" style="enable-background:new 0 0 54.031 53.97;" xml:space="preserve">
<style type="text/css">
	.st0{fill:#B5CC87;}
</style>
<path class="st0" d="M42.543,6.673l3.339-3.338L42.543,0l-3.339,3.337L42.543,6.673z M38.464,10.744l-3.339-3.336l3.341-3.336
	l3.339,3.334L38.464,10.744z M34.393,14.811l-3.339-3.335l3.341-3.337l3.34,3.335L34.393,14.811z M30.321,18.879l-3.34-3.334
	l3.34-3.336l3.339,3.338L30.321,18.879z M43.274,7.406l3.345-3.334l3.339,3.334l-3.341,3.338L43.274,7.406z M39.204,11.476
	l3.341-3.337l3.341,3.337l-3.341,3.337L39.204,11.476z M38.469,12.209l3.342,3.34l-3.342,3.337L35.13,15.55L38.469,12.209z
	 M50.692,8.141l3.339,3.337l-3.345,3.338l-3.341-3.338L50.692,8.141z M49.957,15.547l-3.341,3.337l-3.345-3.337l3.342-3.341
	L49.957,15.547z M39.201,19.613l3.341-3.34l3.341,3.34l-3.341,3.337L39.201,19.613z M35.13,23.676l3.339-3.334l3.342,3.337
	l-3.34,3.338L35.13,23.676z M15.56,33.621l-3.339-3.337l3.339-3.336l3.339,3.336L15.56,33.621z M11.486,37.689l-3.339-3.337
	l3.344-3.339l3.339,3.335L11.486,37.689z M7.413,41.758l-3.339-3.338l3.339-3.33l3.341,3.335L7.413,41.758z M3.343,39.152
	l3.339,3.338l-3.344,3.339L0,42.494L3.343,39.152z M23.347,31.466l6.122,6.117c0.896,0.893,2.363,0.895,3.261,0l2.036-2.044
	l4.892,4.889l0.816-0.813l-4.894-4.885l2.042-2.041c0.898-0.898,0.896-2.366,0-3.259l-6.117-6.111l1.63-1.633l1.262,1.264
	l3.34-3.335l-3.34-3.34l-3.339,3.338l1.263,1.261l-1.633,1.631l-6.12-6.111c-0.897-0.899-2.364-0.899-3.264,0L16.41,21.28
	c-0.899,0.897-0.899,2.361,0,3.257l6.121,6.111l-1.634,1.632l-1.264-1.268l-3.341,3.335l3.341,3.344l3.339-3.335l-1.264-1.267
	L23.347,31.466z M21.468,17.858c0.804-0.805,2.128-0.805,2.934,0l11.742,11.728c0.807,0.807,0.807,2.13,0,2.934L21.468,17.858z
	 M18.903,38.421l-3.343,3.338l-3.344-3.338l3.344-3.34L18.903,38.421z M8.147,42.489l3.339-3.338l3.343,3.338l-3.343,3.339
	L8.147,42.489z M10.756,46.562l-3.343,3.34l-3.339-3.34l3.339-3.339L10.756,46.562z M23.707,35.09l3.345,3.339l-3.342,3.335
	l-3.341-3.339L23.707,35.09z M19.638,39.152l3.339,3.342l-3.339,3.335l-3.344-3.335L19.638,39.152z M15.564,43.221l3.339,3.341
	l-3.339,3.335l-3.344-3.335L15.564,43.221z M14.83,50.629l-3.343,3.341l-3.339-3.341l3.339-3.337L14.83,50.629z M41.849,41.798
	c1.281-1.279,1.648-3.066,1.277-4.716l1.555,0.521c0.178,1.867-0.365,3.795-1.799,5.227c-1.434,1.432-3.36,1.972-5.235,1.799
	l-0.518-1.561C38.777,43.445,40.566,43.076,41.849,41.798z M46.244,38.123l1.425,0.476c-0.093,2.285-0.987,4.549-2.726,6.291
	c-1.742,1.739-4.008,2.628-6.296,2.721l-0.474-1.422c2.077,0.018,4.155-0.751,5.74-2.33C45.49,42.274,46.262,40.199,46.244,38.123z
	 M49.078,39.066l1.408,0.471c-0.289,2.703-1.418,5.335-3.487,7.403c-2.072,2.067-4.705,3.193-7.415,3.484l-0.472-1.409
	c2.502-0.196,4.948-1.194,6.856-3.102C47.876,44.01,48.879,41.56,49.078,39.066z"/>
</svg>
