<svg xmlns="http://www.w3.org/2000/svg" xmlns:xlink="http://www.w3.org/1999/xlink" preserveAspectRatio="xMidYMid" width="54.03" height="54" viewBox="0 0 54.03 54">
  <defs>
    <style>
      .cls-1 {
        fill: #5c7e1c;
        fill-rule: evenodd;
      }
    </style>
  </defs>
  <path d="M42.557,6.688 L45.896,3.349 L42.557,0.015 L39.218,3.352 L42.557,6.688 ZM38.479,10.758 L35.140,7.422 L38.481,4.086 L41.820,7.420 L38.479,10.758 ZM34.407,14.826 L31.069,11.491 L34.410,8.154 L37.750,11.489 L34.407,14.826 ZM30.335,18.894 L26.995,15.560 L30.335,12.224 L33.674,15.562 L30.335,18.894 ZM43.288,7.420 L46.633,4.086 L49.972,7.420 L46.630,10.758 L43.288,7.420 ZM39.218,11.491 L42.559,8.154 L45.900,11.491 L42.559,14.828 L39.218,11.491 ZM38.483,12.224 L41.826,15.564 L38.483,18.901 L35.144,15.564 L38.483,12.224 ZM50.706,8.156 L54.046,11.493 L50.701,14.831 L47.359,11.493 L50.706,8.156 ZM49.972,15.562 L46.630,18.898 L43.286,15.562 L46.628,12.221 L49.972,15.562 ZM39.216,19.628 L42.557,16.287 L45.898,19.628 L42.557,22.965 L39.216,19.628 ZM35.144,23.691 L38.483,20.356 L41.826,23.693 L38.486,27.031 L35.144,23.691 ZM15.574,33.635 L12.235,30.298 L15.574,26.962 L18.913,30.298 L15.574,33.635 ZM11.501,37.704 L8.162,34.367 L11.505,31.027 L14.844,34.362 L11.501,37.704 ZM7.427,41.773 L4.088,38.435 L7.427,35.105 L10.768,38.440 L7.427,41.773 ZM3.358,39.167 L6.697,42.504 L3.353,45.843 L0.014,42.508 L3.358,39.167 ZM23.361,31.481 L29.482,37.598 C30.378,38.491 31.845,38.493 32.743,37.598 L34.779,35.554 L39.671,40.443 L40.487,39.629 L35.593,34.745 L37.635,32.704 C38.533,31.806 38.531,30.338 37.635,29.445 L31.518,23.334 L33.148,21.701 L34.410,22.965 L37.750,19.630 L34.410,16.290 L31.071,19.628 L32.334,20.888 L30.701,22.519 L24.581,16.408 C23.684,15.509 22.217,15.509 21.317,16.408 L16.425,21.294 C15.525,22.191 15.525,23.655 16.425,24.551 L22.546,30.663 L20.912,32.295 L19.648,31.027 L16.307,34.362 L19.648,37.706 L22.987,34.371 L21.723,33.104 L23.361,31.481 ZM21.482,17.873 C22.286,17.067 23.610,17.067 24.416,17.873 L36.158,29.600 C36.965,30.407 36.965,31.730 36.158,32.535 L21.482,17.873 ZM18.918,38.435 L15.574,41.773 L12.231,38.435 L15.574,35.096 L18.918,38.435 ZM8.162,42.504 L11.501,39.167 L14.844,42.504 L11.501,45.843 L8.162,42.504 ZM10.770,46.577 L7.427,49.916 L4.088,46.577 L7.427,43.237 L10.770,46.577 ZM23.721,35.105 L27.066,38.444 L23.724,41.779 L20.383,38.440 L23.721,35.105 ZM19.652,39.167 L22.991,42.508 L19.652,45.843 L16.309,42.508 L19.652,39.167 ZM15.579,43.235 L18.918,46.577 L15.579,49.912 L12.235,46.577 L15.579,43.235 ZM14.844,50.643 L11.501,53.984 L8.162,50.643 L11.501,47.306 L14.844,50.643 ZM41.864,41.813 C43.145,40.534 43.512,38.747 43.140,37.097 L44.695,37.617 C44.873,39.485 44.330,41.412 42.896,42.844 C41.463,44.276 39.536,44.816 37.661,44.643 L37.143,43.082 C38.792,43.460 40.580,43.091 41.864,41.813 ZM46.259,38.137 L47.683,38.613 C47.590,40.899 46.696,43.162 44.958,44.905 C43.216,46.643 40.950,47.533 38.661,47.626 L38.187,46.203 C40.264,46.221 42.342,45.452 43.927,43.873 C45.504,42.288 46.276,40.214 46.259,38.137 ZM49.093,39.080 L50.500,39.551 C50.211,42.255 49.082,44.887 47.013,46.955 C44.941,49.022 42.309,50.147 39.599,50.439 L39.127,49.029 C41.629,48.834 44.075,47.835 45.983,45.928 C47.891,44.024 48.893,41.574 49.093,39.080 Z" class="cls-1"/>
</svg>
