<?xml version="1.0" encoding="utf-8"?>
<svg xmlns="http://www.w3.org/2000/svg"
     xmlns:xlink="http://www.w3.org/1999/xlink"
     width="230px" height="63px" viewBox="0 0 230 63">


    <defs>
        <linearGradient id="grad2" x1="0%" y1="0%" x2="0%" y2="100%">
            <stop offset="0%" style="stop-color:rgb(255,255,0);stop-opacity:1"/>
            <stop offset="100%" style="stop-color:rgb(255,0,0);stop-opacity:1"/>
        </linearGradient>
    </defs>

    <path stroke="red" stroke-linecap="round"
          stroke-linejoin="round"
          stroke-width="1"  fillRule="evenodd"
          d="M 3-0C 3-0 215-0 215-0 216.66-0 218 3 218 3 218 3 230 32 230 32 230 32 218 58 218 58 218 58 216.66 61 215 61 215 61 3 61 3 61 1.34 61-0 59.66-0 58-0 58-0 3-0 3-0 1.34 1.34-0 3-0Z"
          fill="url(#grad2)"/>


</svg>