<?xml version="1.0" encoding="utf-8"?>
<svg xmlns="http://www.w3.org/2000/svg"
	xmlns:xlink="http://www.w3.org/1999/xlink"
	width="230px" height="63px" viewBox="0 0 230 63">
<filter filterUnits="objectBoundingBox" x="0.00" y="0.00" width="100.00" height="103.28" id="filter0">
<feGaussianBlur in="SourceAlpha" stdDeviation="0.00" result="dsBlurOut1"/>
<feFlood flood-color="rgb(141,32,0)" result="dsFloodOut1"/>
<feComposite in="dsFloodOut1" in2="dsBlurOut1" operator="in" result="dsShadow1"/>
<feOffset in="dsShadow1" dx="-0.00" dy="2.00" result="dsOffset1"/>
<feComposite in="dsOffset1" in2="SourceAlpha" operator="out" result="dropShadow1"/>
<feBlend in="dropShadow1" in2="SourceGraphic" mode="normal" result="sourceGraphic"/>
</filter>
<clipPath id="clip0"><path fillRule="evenodd" d="M 3 0C 3 0 215 0 215 0 216.66 0 218 3 218 3 218 3 230 32 230 32 230 32 218 58 218 58 218 58 216.66 61 215 61 215 61 3 61 3 61 1.34 61-0 59.66-0 58-0 58-0 3-0 3-0 1.34 1.34 0 3 0Z"/></clipPath><defs>
<symbol id="symbol0"><path fillRule="evenodd" d="M 3 0C 3 0 215 0 215 0 216.66 0 218 3 218 3 218 3 230 32 230 32 230 32 218 58 218 58 218 58 216.66 61 215 61 215 61 3 61 3 61 1.34 61-0 59.66-0 58-0 58-0 3-0 3-0 1.34 1.34 0 3 0Z"/></symbol></defs>
<g><path fillRule="evenodd" d="M 3 0C 3 0 215 0 215 0 216.66 0 218 3 218 3 218 3 230 32 230 32 230 32 218 58 218 58 218 58 216.66 61 215 61 215 61 3 61 3 61 1.34 61-0 59.66-0 58-0 58-0 3-0 3-0 1.34 1.34 0 3 0Z" fill="rgb(255,119,0)" filter="url(#filter0)"/><use xlink:href="#symbol0" x="0" y="0" width="230" height="63" fill="none" stroke="rgb(208,59,0)" stroke-width="2.00px" clip-path="url(#clip0)"/></g></svg>