<?xml version="1.0" encoding="utf-8"?>
<svg xmlns="http://www.w3.org/2000/svg"
	xmlns:xlink="http://www.w3.org/1999/xlink"
	width="22px" height="22px" viewBox="0 0 22 22">
<path fillRule="evenodd" d="M 11 22C 4.93 22-0 17.07-0 11-0 4.93 4.93-0 11-0 17.07-0 22 4.93 22 11 22 17.07 17.07 22 11 22ZM 11 1.89C 5.97 1.89 1.89 5.97 1.89 11 1.89 16.03 5.97 20.11 11 20.11 16.03 20.11 20.11 16.03 20.11 11 20.11 5.97 16.03 1.89 11 1.89ZM 15.26 15.26C 15.07 15.44 14.83 15.53 14.59 15.53 14.35 15.53 14.11 15.44 13.92 15.26 13.92 15.26 11 12.33 11 12.33 11 12.33 8.08 15.26 8.08 15.26 7.89 15.44 7.65 15.53 7.41 15.53 7.17 15.53 6.93 15.44 6.74 15.26 6.38 14.89 6.38 14.29 6.74 13.92 6.74 13.92 9.67 11 9.67 11 9.67 11 6.74 8.08 6.74 8.08 6.38 7.71 6.38 7.11 6.74 6.74 7.11 6.38 7.71 6.38 8.08 6.74 8.08 6.74 11 9.67 11 9.67 11 9.67 13.92 6.74 13.92 6.74 14.29 6.38 14.89 6.38 15.26 6.74 15.62 7.11 15.62 7.71 15.26 8.08 15.26 8.08 12.33 11 12.33 11 12.33 11 15.26 13.92 15.26 13.92 15.62 14.29 15.62 14.89 15.26 15.26Z" fill="rgb(67,123,203)"/></svg>